<!-- keep it under 125kb -->
<svg xmlns="http://www.w3.org/2000/svg" xmlns:xlink="http://www.w3.org/1999/xlink">
  <defs>
    <!-- symbol id should be a value of IconId from /src/utils/icons.ts -->
    <symbol id="discord">  
      <path d="M12.2956 0.961758C11.3834 0.578075 10.4052 0.295395 9.38241 0.133492C9.36378 0.130367 9.34518 0.138176 9.33558 0.153794C9.20978 0.358904 9.07042 0.626488 8.97284 0.836808C7.87277 0.68584 6.77834 0.68584 5.70083 0.836808C5.60323 0.621813 5.45882 0.358904 5.33244 0.153794C5.32285 0.138697 5.30424 0.130888 5.28562 0.133492C4.2634 0.294877 3.28519 0.577558 2.37241 0.961758C2.3645 0.964881 2.35773 0.970092 2.35324 0.976855C0.497773 3.51788 -0.0105166 5.99644 0.238833 8.44427C0.239961 8.45625 0.247295 8.4677 0.25745 8.47499C1.48163 9.29908 2.66746 9.79938 3.83127 10.131C3.8499 10.1362 3.86963 10.13 3.88148 10.1159C4.15678 9.77127 4.40219 9.4079 4.6126 9.02577C4.62501 9.00339 4.61316 8.97684 4.58778 8.96799C4.19853 8.83263 3.82788 8.6676 3.47135 8.4802C3.44314 8.4651 3.44089 8.42812 3.46683 8.41042C3.54186 8.35889 3.61691 8.30526 3.68855 8.25112C3.70151 8.24124 3.71957 8.23915 3.73481 8.24539C6.0771 9.22568 8.61292 9.22568 10.9276 8.24539C10.9428 8.23863 10.9609 8.24072 10.9744 8.2506C11.0461 8.30475 11.1211 8.35889 11.1967 8.41042C11.2226 8.42812 11.2209 8.4651 11.1927 8.4802C10.8362 8.67124 10.4655 8.83263 10.0757 8.96747C10.0503 8.97632 10.0391 9.00339 10.0515 9.02577C10.2664 9.40736 10.5118 9.77074 10.782 10.1154C10.7933 10.13 10.8136 10.1362 10.8322 10.131C12.0017 9.79938 13.1875 9.29908 14.4117 8.47499C14.4224 8.4677 14.4292 8.45677 14.4303 8.44479C14.7287 5.61483 13.9305 3.15659 12.3142 0.977372C12.3103 0.970092 12.3035 0.964881 12.2956 0.961758ZM4.96238 6.9538C4.25719 6.9538 3.67613 6.36033 3.67613 5.63149C3.67613 4.90266 4.24592 4.30919 4.96238 4.30919C5.68446 4.30919 6.2599 4.90787 6.24861 5.63149C6.24861 6.36033 5.67882 6.9538 4.96238 6.9538ZM9.71806 6.9538C9.01289 6.9538 8.43183 6.36033 8.43183 5.63149C8.43183 4.90266 9.0016 4.30919 9.71806 4.30919C10.4402 4.30919 11.0156 4.90787 11.0043 5.63149C11.0043 6.36033 10.4402 6.9538 9.71806 6.9538Z"/>
    </symbol>

    <symbol id="telegram">
      <path d="M9.522 3.288c.368-.368.733-1.227-.8-.184-2.18 1.503-4.326 2.915-4.326 2.915a1.8 1.8 0 0 1-1.412.03C2.064 5.773.99 5.405.99 5.405s-.733-.46.522-.951c0 0 5.308-2.178 7.148-2.945C9.366 1.202 11.758.22 11.758.22s1.105-.43 1.013.613c-.03.43-.276 1.933-.521 3.559-.37 2.3-.768 4.816-.768 4.816s-.061.706-.582.828a2.525 2.525 0 0 1-1.534-.552c-.122-.092-2.3-1.472-3.098-2.147a.581.581 0 0 1 .03-.982 112.864 112.864 0 0 0 3.224-3.068Z"/>
    </symbol>

    <symbol id="twitter">
      <path d="M13.8138 1.93321C13.3127 2.15061 12.7828 2.29432 12.2405 2.35988C12.8126 2.01809 13.2413 1.4804 13.4471 0.846546C12.9095 1.16659 12.321 1.39208 11.7071 1.51321C11.2968 1.06826 10.7504 0.772077 10.1537 0.671114C9.5569 0.57015 8.9435 0.670118 8.40966 0.955339C7.87583 1.24056 7.45176 1.6949 7.20396 2.2471C6.95617 2.79931 6.89866 3.41814 7.04047 4.00655C5.95342 3.95156 4.8901 3.66851 3.91957 3.17579C2.94905 2.68306 2.09303 1.99167 1.40714 1.14655C1.16656 1.56666 1.04015 2.04243 1.04047 2.52655C1.03962 2.97613 1.14995 3.41896 1.36164 3.81559C1.57333 4.21222 1.87981 4.55035 2.2538 4.79988C1.81912 4.78805 1.39373 4.67141 1.0138 4.45988V4.49321C1.01706 5.12314 1.2378 5.73261 1.63868 6.21852C2.03956 6.70444 2.59597 7.03697 3.2138 7.15988C2.97597 7.23226 2.72905 7.27042 2.48047 7.27321C2.3084 7.2712 2.13675 7.2556 1.96714 7.22655C2.14308 7.76842 2.48355 8.24198 2.94119 8.58132C3.39882 8.92066 3.95085 9.10891 4.52047 9.11988C3.5586 9.87672 2.37106 10.2898 1.14714 10.2932C0.924292 10.2939 0.701626 10.2806 0.480469 10.2532C1.73009 11.0601 3.18634 11.4884 4.6738 11.4865C5.70026 11.4972 6.71856 11.3032 7.66921 10.9159C8.61987 10.5286 9.48382 9.9558 10.2106 9.23088C10.9374 8.50595 11.5124 7.64347 11.9022 6.69382C12.2919 5.74416 12.4885 4.72636 12.4805 3.69988C12.4805 3.58655 12.4805 3.46655 12.4805 3.34655C13.0036 2.95642 13.4548 2.47816 13.8138 1.93321Z"/>
    </symbol>

    <symbol id="warning">
      <path d="M4.661.215v2.328L3.57 11.495H1.795L.703 2.543V.215h3.958ZM1.248 16.048v-3.07h2.868v3.07H1.248Z"/>
    </symbol>
  </defs>
</svg>